<svg width="117" height="35" viewBox="0 0 117 35" fill="none" xmlns="http://www.w3.org/2000/svg">
<path d="M108.83 14V11.4683H108.046V10.908H110.245V11.4683H109.473V14H108.83ZM110.564 14V10.908H111.186L112.344 12.4436H112.054L113.179 10.908H113.801V14H113.158V11.6177L113.415 11.6758L112.224 13.2114H112.141L110.991 11.6758L111.207 11.6177V14H110.564Z" fill="black"/>
<path d="M46.5863 28.1299C47.6222 28.1299 48.5386 27.9407 49.3355 27.5622C50.1324 27.1637 50.74 26.5661 51.1583 25.7692V27.7714H55.3419V11.4554H50.8595V20.988C50.8595 21.9243 50.5806 22.6813 50.0228 23.2591C49.465 23.8169 48.7478 24.0958 47.8713 24.0958C46.9947 24.0958 46.2775 23.8169 45.7197 23.2591C45.1619 22.6813 44.883 21.9243 44.883 20.988V11.4554H40.4006V21.3466C40.4006 23.3786 40.9285 25.0221 41.9844 26.2772C43.0601 27.5124 44.5941 28.1299 46.5863 28.1299Z" fill="black"/>
<path d="M58.6181 9.99114H63.1005V5.50874H58.6181V9.99114ZM58.6181 27.7714H63.1005V11.4554H58.6181V27.7714Z" fill="black"/>
<path d="M68.3528 27.7714H72.8352V15.3401H76.3315V11.4554H72.8352V11.2163C72.8352 9.76204 73.6819 9.0349 75.3752 9.0349C75.6542 9.0349 75.9829 9.06478 76.3614 9.12455V5.29956C75.9032 5.19995 75.3752 5.15015 74.7776 5.15015C72.7456 5.15015 71.1618 5.67807 70.0262 6.73393C68.9106 7.78979 68.3528 9.28392 68.3528 11.2163V11.4554H65.6036V15.3401H68.3528V27.7714Z" fill="black"/>
<path d="M78.6371 27.7714H83.1195V18.9858C83.1195 17.7706 83.4582 16.8343 84.1355 16.1769C84.8129 15.4995 85.6994 15.1609 86.7951 15.1609H88.1996V11.2761H87.2433C86.2473 11.2761 85.3607 11.4654 84.5838 11.8439C83.8268 12.2025 83.2391 12.8898 82.8207 13.9058V11.4554H78.6371V27.7714Z" fill="black"/>
<path d="M92.7042 34.4053C95.6924 34.4053 97.854 32.702 99.1887 29.2954L106.181 11.4554H101.37L97.5153 21.9442L93.6604 11.4554H88.8493L95.2741 27.7714L94.9753 28.4587C94.7362 28.9965 94.4274 29.4747 94.0489 29.893C93.6704 30.3114 93.0428 30.5206 92.1663 30.5206C91.4491 30.5206 90.7718 30.421 90.1343 30.2217V33.8973C90.4729 34.0766 90.8614 34.2061 91.2997 34.2858C91.7579 34.3655 92.2261 34.4053 92.7042 34.4053Z" fill="black"/>
<path d="M26.3829 10.8852C26.1564 10.6651 25.8387 10.5651 25.5277 10.6163C25.2162 10.6672 24.9472 10.8628 24.8027 11.1434C24.3057 12.1089 23.6745 12.9961 22.9318 13.7805C23.0058 13.2139 23.0431 12.6439 23.0431 12.0724C23.0431 10.9759 22.8961 9.84742 22.6061 8.71805C21.6527 5.00853 19.1525 1.87144 15.7468 0.111205C15.4503 -0.0419942 15.097 -0.0366153 14.8053 0.125549C14.5136 0.287779 14.3226 0.585213 14.2964 0.917908C14.0309 4.28895 12.2945 7.35586 9.52981 9.33424C9.49322 9.3606 9.4569 9.38729 9.42057 9.41386C9.34534 9.46891 9.27441 9.52097 9.20814 9.56467C9.19778 9.57157 9.18749 9.57861 9.17739 9.58585C7.43861 10.8308 6.00391 12.4903 5.0282 14.3854C4.03675 16.3131 3.53406 18.3818 3.53406 20.5336C3.53406 21.6299 3.68101 22.7583 3.97088 23.8879C5.50055 29.8417 10.8585 33.9999 17.0004 33.9999C24.4253 33.9999 30.4659 27.9589 30.4659 20.5336C30.4659 16.872 29.0159 13.4454 26.3829 10.8852Z" fill="#FF5555"/>
<circle cx="16" cy="20" r="4" fill="white"/>
</svg>
